<?xml version="1.0" encoding="iso-8859-1"?>
<!-- Generator: Adobe Illustrator 19.0.0, SVG Export Plug-In . SVG Version: 6.00 Build 0)  -->
<svg version="1.1" id="Capa_1" xmlns="http://www.w3.org/2000/svg" xmlns:xlink="http://www.w3.org/1999/xlink" x="0px" y="0px"
	 viewBox="0 0 463 463" style="enable-background:new 0 0 463 463;" xml:space="preserve">
<g>
	<path d="M183.5,136c-52.659,0-95.5,42.841-95.5,95.5s42.841,95.5,95.5,95.5s95.5-42.841,95.5-95.5S236.159,136,183.5,136z
		 M183.5,312c-44.388,0-80.5-36.112-80.5-80.5s36.112-80.5,80.5-80.5s80.5,36.112,80.5,80.5S227.888,312,183.5,312z"/>
	<path d="M183.5,168c-4.142,0-7.5,3.358-7.5,7.5s3.358,7.5,7.5,7.5c26.743,0,48.5,21.757,48.5,48.5c0,4.142,3.358,7.5,7.5,7.5
		s7.5-3.358,7.5-7.5C247,196.486,218.514,168,183.5,168z"/>
	<path d="M455.5,96h-168c-4.142,0-7.5,3.358-7.5,7.5v8c0,4.687-3.813,8.5-8.5,8.5s-8.5-3.813-8.5-8.5v-8c0-4.142-3.358-7.5-7.5-7.5
		h-68.708c-67.508,0-124.22,47.67-136.379,110.327C45.142,202.357,38.591,200,31.5,200C14.131,200,0,214.131,0,231.5
		S14.131,263,31.5,263c7.055,0,13.576-2.331,18.832-6.264c4.972,26.576,17.792,51.015,37.355,70.577
		c25.622,25.622,59.599,39.689,95.801,39.687c0.391,0,0.788-0.002,1.18-0.005C258.739,366.37,319,304.111,319,228.209v-18.825
		c0-15.953,11.421-29.435,27.157-32.058l90.521-15.087C451.93,159.698,463,146.631,463,131.169V103.5
		C463,99.358,459.642,96,455.5,96z M31.5,248c-9.098,0-16.5-7.402-16.5-16.5S22.402,215,31.5,215S48,222.402,48,231.5
		S40.598,248,31.5,248z M448,131.169c0,8.099-5.798,14.944-13.788,16.275l-90.521,15.087C320.692,166.364,304,186.069,304,209.385
		v18.825c0,67.7-53.589,123.23-119.459,123.786c-0.35,0.003-0.699,0.004-1.049,0.004c-32.194,0-62.415-12.51-85.198-35.294
		c-23.032-23.031-35.564-53.661-35.29-86.247C63.56,164.589,119.091,111,186.792,111H248v0.5c0,12.958,10.542,23.5,23.5,23.5
		s23.5-10.542,23.5-23.5V111h153V131.169z"/>
</g>
<g>
</g>
<g>
</g>
<g>
</g>
<g>
</g>
<g>
</g>
<g>
</g>
<g>
</g>
<g>
</g>
<g>
</g>
<g>
</g>
<g>
</g>
<g>
</g>
<g>
</g>
<g>
</g>
<g>
</g>
</svg>
