<?xml version="1.0" encoding="iso-8859-1"?>
<!-- Generator: Adobe Illustrator 19.0.0, SVG Export Plug-In . SVG Version: 6.00 Build 0)  -->
<svg version="1.1" id="Capa_1" xmlns="http://www.w3.org/2000/svg" xmlns:xlink="http://www.w3.org/1999/xlink" x="0px" y="0px"
	 viewBox="0 0 512.001 512.001" style="enable-background:new 0 0 512.001 512.001;" xml:space="preserve">
<g>
	<g>
		<path d="M331.999,66.875c-4.143,0-7.5,3.358-7.5,7.5v37.368c0,4.142,3.357,7.5,7.5,7.5c4.143,0,7.5-3.358,7.5-7.5V74.375
			C339.499,70.233,336.142,66.875,331.999,66.875z"/>
	</g>
</g>
<g>
	<g>
		<path d="M302.213,114.222l-18.684-32.361c-2.071-3.588-6.66-4.817-10.245-2.745c-3.587,2.071-4.816,6.658-2.745,10.245
			l18.684,32.361c2.071,3.589,6.661,4.815,10.245,2.745C303.055,122.396,304.284,117.809,302.213,114.222z"/>
	</g>
</g>
<g>
	<g>
		<path d="M390.716,79.116c-3.589-2.073-8.176-0.842-10.245,2.745l-18.684,32.361c-2.071,3.587-0.842,8.174,2.745,10.245
			c3.592,2.073,8.177,0.838,10.245-2.745l18.684-32.361C395.532,85.774,394.303,81.187,390.716,79.116z"/>
	</g>
</g>
<g>
	<g>
		<path d="M224.229,231.864c-14.967-17.522-35.664-29.261-58.275-33.055c-4.089-0.688-7.952,2.07-8.638,6.155
			s2.07,7.952,6.155,8.638c40.119,6.732,69.237,41.192,69.237,81.938c0,45.819-37.276,83.096-83.096,83.096
			c-45.818,0-83.096-37.276-83.096-83.096c0-38.559,27.267-72.657,64.835-81.078c4.042-0.906,6.584-4.917,5.678-8.959
			c-0.906-4.042-4.914-6.585-8.959-5.678c-21.396,4.796-40.824,16.87-54.706,33.997c-51.712,63.803-6.191,159.814,76.248,159.814
			C233.224,393.636,278.354,295.218,224.229,231.864z"/>
	</g>
</g>
<g>
	<g>
		<path d="M504.501,199.008c4.143,0,7.5-3.358,7.5-7.5v-40.658c-0.001-12.761-10.383-23.143-23.144-23.143h-18.249
			c-11.082,0-20.365,7.831-22.617,18.25c-37.737,0-264.364,0-296.678,0c-26.278,0-51.036,6.699-72.62,18.45
			c0.011-0.372,0.028-0.742,0.028-1.116c0-19.927-16.212-36.138-36.139-36.138S6.444,143.363,6.444,163.291
			c0,17.705,12.801,32.466,29.631,35.54c-51.002,59.287-47.335,146.854,7.256,201.971c28.111,28.382,65.585,44.123,105.521,44.322
			c0.255,0.001,0.501,0.002,0.756,0.002c90.998-0.006,162.023-81.554,147.8-172.743c-0.007-0.043-0.013-0.084,0.037-0.142
			c0.043-0.05,0.071-0.05,0.113-0.05h151.31c3.245,8.865,11.766,15.208,21.741,15.208h18.249c12.761,0,23.143-10.381,23.143-23.142
			v-37.749c0-4.142-3.357-7.5-7.5-7.5c-4.143,0-7.5,3.358-7.5,7.5v37.749c0,4.49-3.652,8.142-8.143,8.142h-18.249
			c-4.49,0-8.143-3.652-8.143-8.142V150.849c0-4.49,3.652-8.143,8.143-8.143h18.249c4.49,0,8.143,3.653,8.143,8.143v40.658
			C497.001,195.65,500.358,199.008,504.501,199.008z M364.04,160.957v20.091c0,0.04-0.064,0.104-0.104,0.104h-63.872
			c-0.04,0-0.104-0.064-0.104-0.104v-20.091H364.04z M21.444,163.291c0-11.656,9.482-21.138,21.138-21.138
			s21.139,9.482,21.139,21.138c0,6.262-2.752,11.879-7.093,15.753c-0.571,0.455-1.142,0.911-1.706,1.374
			c-3.477,2.512-7.732,4.011-12.34,4.011C30.927,184.429,21.444,174.946,21.444,163.291z M447.466,257.19H297.558
			c-4.432,0-8.626,1.93-11.507,5.294c-2.886,3.37-4.148,7.819-3.464,12.208c12.774,81.912-50.947,155.433-132.98,155.433
			c-0.225,0-0.455,0-0.681-0.002c-35.928-0.179-69.644-14.342-94.938-39.878c-55.114-55.646-51.717-146.714,9.88-197.776
			c0.944-0.691,1.854-1.426,2.726-2.203c23.298-18.331,52.76-29.311,84.719-29.311H284.96v20.091
			c0,8.328,6.775,15.104,15.104,15.104h63.872c8.329,0,15.104-6.775,15.104-15.104v-20.091h68.425V257.19z"/>
	</g>
</g>
<g>
</g>
<g>
</g>
<g>
</g>
<g>
</g>
<g>
</g>
<g>
</g>
<g>
</g>
<g>
</g>
<g>
</g>
<g>
</g>
<g>
</g>
<g>
</g>
<g>
</g>
<g>
</g>
<g>
</g>
</svg>
