<?xml version="1.0" encoding="iso-8859-1"?>
<!-- Generator: Adobe Illustrator 16.0.0, SVG Export Plug-In . SVG Version: 6.00 Build 0)  -->
<!DOCTYPE svg PUBLIC "-//W3C//DTD SVG 1.1//EN" "http://www.w3.org/Graphics/SVG/1.1/DTD/svg11.dtd">
<svg version="1.1" id="Capa_1" xmlns="http://www.w3.org/2000/svg" xmlns:xlink="http://www.w3.org/1999/xlink" x="0px" y="0px"
	 width="427.616px" height="427.617px" viewBox="0 0 427.616 427.617" style="enable-background:new 0 0 427.616 427.617;"
	 xml:space="preserve">
<g>
	<g>
		<path d="M242.109,0c30.798,0,55.756,32.027,55.756,71.533c0,39.509-24.958,71.534-55.756,71.534
			c-30.796,0-55.761-32.025-55.761-71.534C186.349,32.027,211.313,0,242.109,0z"/>
		<path d="M83.971,275.975c75.049,0,64.523-26.648,104.49-23.146c8.59,0.762,15.294,0.962,20.538,0.806
			c11.339-0.305,23.181-8.816,29.453-10.824c3.391-1.082,7.386-1.899,11.714-1.899c12.619,0,28.749,6.308,37.169,6.308
			c2.452,0,4.191-0.481,5.434-1.158c2.713-1.486-1.562-6.652-7.182-9.354c-5.622-2.713-17.235-6.961-25.96-9.474
			c-8.708-2.517-22.998-4.709-31.898-4.909c-8.917-0.188-18.016,0.754-20.34,2.104c-2.331,1.346-9.392,1.671-15.781,0.705
			l-11.567-1.755l-37.873-4.909l-22.436-7.715c0,0-49.796-15.428-83.449-7.011C13.827,214.092,9.968,218.822,8.23,229.702
			C5.884,244.373,8.936,275.975,83.971,275.975z"/>
		<path d="M339.418,304.003l23.856,26.686l42.735-0.221l13.873-2.092c0,0-22.613-58.909-25.764-95.718
			c-3.153-36.824-38.427-56.458-38.427-56.458c-7.241-6.734-23.556-14.623-38.88-21.522v163.094l22.613,4.492v-18.262H339.418z"/>
		<path d="M339.418,427.6v-24.393c-6.652-5.138-14.23-11.081-22.613-17.725v42.134h22.613V427.6z"/>
		<path d="M141.898,209.961l25.541,3.442V151.93c-33.043,10.652-86.308,28.599-109.515,40.639c30.174,0.104,60.76,9.468,62.055,9.87
			L141.898,209.961z"/>
		<path d="M133.909,427.6h33.53V261.272c-4.276,1.318-7.985,3.286-12.299,5.659c-5.408,2.974-11.395,6.239-19.678,9.061
			L133.909,427.6z"/>
		<path d="M205.308,216.797c3.783-1.519,10.345-2.075,15.411-2.268v-43.573l-15.411-17.042V216.797z"/>
		<path d="M205.308,261.517V427.6h15.411V259.201c-3.684,1.218-7.539,2.18-11.502,2.284
			C207.995,261.517,206.664,261.533,205.308,261.517z"/>
		<path d="M258.593,218.493c1.646,0.385,3.233,0.781,4.668,1.194c4.886,1.419,10.532,3.314,15.669,5.214v-79.691l-20.337,27.288
			V218.493z"/>
		<path d="M258.593,350.89v76.71h20.337v-72.63c-1.947-1.579-3.831-3.114-5.843-4.753
			C269.272,351.199,263.814,352.041,258.593,350.89z"/>
		<path d="M278.93,253.682c-2.208-0.429-4.492-0.914-6.977-1.503c-1.158-0.276-2.376-0.537-3.57-0.813l1.739,12.467l8.808,24.614
			V253.682z"/>
		<path d="M260.355,254.833c-0.497-3.559-1.543-5.707-2.777-6.945c-2.949-2.993-8.96,2.261-9.229,6.484
			c-0.137,2.063-0.008,4.584,0.605,7.643c2.1,10.527,9.629,36.295,9.629,41.023c0,4.736-7.009,18.414-5.963,34.713
			c1.059,16.313,22.102,7.898,22.102,7.898s96.242,78.365,103.596,79.943c7.365,1.579,33.142-21.56,34.184-34.191
			c1.05-12.619-6.576-56.793-6.576-56.793l-1.427,0.213l-34.745,0.048l-0.031,5.534L286.62,323.92l-14.03-25.6l-10.166-28.4
			L260.355,254.833z"/>
	</g>
</g>
<g>
</g>
<g>
</g>
<g>
</g>
<g>
</g>
<g>
</g>
<g>
</g>
<g>
</g>
<g>
</g>
<g>
</g>
<g>
</g>
<g>
</g>
<g>
</g>
<g>
</g>
<g>
</g>
<g>
</g>
</svg>
