<?xml version="1.0" encoding="iso-8859-1"?>
<!-- Generator: Adobe Illustrator 16.0.0, SVG Export Plug-In . SVG Version: 6.00 Build 0)  -->
<!DOCTYPE svg PUBLIC "-//W3C//DTD SVG 1.1//EN" "http://www.w3.org/Graphics/SVG/1.1/DTD/svg11.dtd">
<svg version="1.1" id="Capa_1" xmlns="http://www.w3.org/2000/svg" xmlns:xlink="http://www.w3.org/1999/xlink" x="0px" y="0px"
	 width="557.818px" height="557.818px" viewBox="0 0 557.818 557.818" style="enable-background:new 0 0 557.818 557.818;"
	 xml:space="preserve">
<g>
	<g>
		<circle cx="35.812" cy="155.639" r="35.812"/>
		<circle cx="522.008" cy="155.639" r="35.812"/>
		<path d="M417.164,415.882V271.279l2.965-2.075l3.529,9.687c2.18,5.977,7.83,9.716,13.855,9.716c1.674,0,3.375-0.287,5.029-0.909
			c7.65-2.772,11.6-11.226,8.816-18.876l-6.225-17.117l13.043-9.122c-0.029,0.994-0.105,1.979,0.076,2.964l11.398,63.026
			c1.291,7.124,7.498,12.126,14.488,12.126c0.869,0,1.76-0.077,2.648-0.239c8.004-1.435,13.32-9.113,11.877-17.117l-10.586-58.417
			l9.428-20.234c1.549-3.309,1.693-6.885,0.785-10.155l0.602-0.421l-1.549-2.075c-0.803-1.664-1.922-3.165-3.328-4.446
			l-34.404-45.853c-4.887-6.512-14.277-8.032-20.963-3.423l-76.518,53.148l-24.012-8.482c3.52-5.537,4.637-12.527,2.285-19.192
			c-4.064-11.513-16.705-17.566-28.199-13.483l-33.288,11.762l-33.287-11.762c-11.494-4.083-24.136,1.97-28.2,13.483
			c-2.353,6.665-1.243,13.655,2.285,19.192l-24.011,8.482l-76.519-53.148c-6.694-4.609-16.084-3.088-20.961,3.423L63.82,207.592
			c-1.406,1.281-2.524,2.783-3.328,4.446l-1.549,2.075l0.603,0.421c-0.908,3.27-0.774,6.847,0.784,10.155l9.429,20.234
			l-10.595,58.398c-1.444,8.004,3.873,15.682,11.876,17.116c0.889,0.173,1.779,0.239,2.649,0.239c6.98,0,13.187-5.001,14.487-12.125
			l11.398-63.026c0.182-0.985,0.096-1.97,0.076-2.965l13.043,9.123l-6.225,17.116c-2.783,7.65,1.167,16.104,8.816,18.877
			c1.664,0.612,3.366,0.908,5.03,0.908c6.024,0,11.676-3.739,13.856-9.716l3.528-9.687l2.964,2.075v144.604
			c0,12.211,9.897,22.108,22.108,22.108c12.202,0,22.099-9.897,22.099-22.108V262.175l94.057-33.23l94.058,33.23v153.707
			c0,12.212,9.896,22.108,22.098,22.108C407.277,437.991,417.164,428.094,417.164,415.882z"/>
	</g>
</g>
<g>
</g>
<g>
</g>
<g>
</g>
<g>
</g>
<g>
</g>
<g>
</g>
<g>
</g>
<g>
</g>
<g>
</g>
<g>
</g>
<g>
</g>
<g>
</g>
<g>
</g>
<g>
</g>
<g>
</g>
</svg>
