<?xml version="1.0" encoding="iso-8859-1"?>
<!-- Generator: Adobe Illustrator 16.0.0, SVG Export Plug-In . SVG Version: 6.00 Build 0)  -->
<!DOCTYPE svg PUBLIC "-//W3C//DTD SVG 1.1//EN" "http://www.w3.org/Graphics/SVG/1.1/DTD/svg11.dtd">
<svg version="1.1" id="Capa_1" xmlns="http://www.w3.org/2000/svg" xmlns:xlink="http://www.w3.org/1999/xlink" x="0px" y="0px"
	 width="234.287px" height="234.288px" viewBox="0 0 234.287 234.288" style="enable-background:new 0 0 234.287 234.288;"
	 xml:space="preserve">
<g>
	<g id="_x39_1_31_">
		<g>
			<polygon points="67.875,64.701 67.958,64.701 77.881,82.504 85.523,82.504 85.523,53.936 78.518,53.936 78.518,71.543 
				78.442,71.543 68.515,53.936 60.872,53.936 60.872,82.504 67.875,82.504 			"/>
			<polygon points="113.779,76.104 98.056,76.104 98.056,70.665 112.058,70.665 112.058,64.894 98.056,64.894 98.056,59.897 
				113.378,59.897 113.378,53.936 90.609,53.936 90.609,82.504 113.779,82.504 			"/>
			<polygon points="130.745,82.504 134.676,62.812 134.752,62.812 138.672,82.504 146.116,82.504 154.002,53.936 146.553,53.936 
				142.516,74.824 142.435,74.824 138.235,53.936 131.223,53.936 127.023,74.824 126.947,74.824 122.904,53.936 115.458,53.936 
				123.189,82.504 			"/>
			<path d="M159.567,55.337c-1.122,0.69-2.036,1.595-2.742,2.701c-0.711,1.109-1.066,2.43-1.066,3.984
				c0,1.3,0.249,2.419,0.742,3.344c0.497,0.914,1.137,1.696,1.924,2.313c0.787,0.63,1.681,1.15,2.687,1.546
				c1,0.394,2.001,0.754,3.017,1.034c1.041,0.297,2.052,0.556,3.026,0.779c0.97,0.236,1.843,0.49,2.62,0.782
				c0.771,0.29,1.392,0.64,1.858,1.043c0.467,0.396,0.701,0.917,0.701,1.557c0,0.541-0.133,0.982-0.396,1.361
				c-0.274,0.375-0.619,0.68-1.046,0.904c-0.427,0.226-0.914,0.396-1.457,0.5c-0.544,0.109-1.098,0.163-1.661,0.163
				c-1.6,0-2.879-0.328-3.839-0.967c-0.965-0.64-1.482-1.8-1.563-3.474h-7.439c0,1.841,0.34,3.39,1.021,4.68
				c0.681,1.279,1.595,2.323,2.742,3.156c1.147,0.822,2.458,1.419,3.94,1.8c1.473,0.378,3.047,0.556,4.697,0.556
				c1.579,0,3.112-0.152,4.605-0.48c1.493-0.317,2.813-0.84,3.981-1.584c1.157-0.734,2.092-1.707,2.803-2.933
				c0.706-1.229,1.057-2.752,1.057-4.561c0-1.29-0.233-2.386-0.722-3.313c-0.477-0.917-1.106-1.686-1.879-2.313
				c-0.771-0.63-1.655-1.15-2.641-1.566c-0.99-0.406-2.006-0.76-3.047-1.057c-1.035-0.294-2.051-0.546-3.036-0.759
				c-0.99-0.213-1.879-0.457-2.666-0.721c-0.787-0.267-1.417-0.569-1.884-0.927c-0.467-0.343-0.701-0.79-0.701-1.361
				c0-0.48,0.112-0.876,0.336-1.181c0.223-0.308,0.518-0.546,0.863-0.744c0.355-0.183,0.736-0.317,1.162-0.396
				c0.427-0.079,0.844-0.12,1.244-0.12c0.559,0,1.117,0.063,1.676,0.183c0.563,0.12,1.066,0.317,1.503,0.577
				c0.447,0.261,0.798,0.619,1.066,1.056c0.265,0.447,0.381,0.983,0.355,1.628h7.444c0-1.607-0.335-2.986-1.005-4.144
				c-0.66-1.161-1.534-2.112-2.601-2.867c-1.066-0.744-2.285-1.3-3.656-1.653c-1.381-0.366-2.772-0.541-4.184-0.541
				c-1.33,0-2.696,0.15-4.083,0.478C161.934,54.128,160.685,54.634,159.567,55.337z"/>
			<path d="M107.473,160.541H64.843c-1.544,0-2.793,0.817-2.793,1.843v37.79c0,1.016,1.249,1.839,2.793,1.839h42.629
				c1.544,0,2.798-0.823,2.798-1.839v-37.79C110.263,161.358,109.017,160.541,107.473,160.541z"/>
			<path d="M168.525,160.541H125.9c-1.543,0-2.793,0.817-2.793,1.843v37.79c0,1.016,1.25,1.839,2.793,1.839h42.625
				c1.549,0,2.803-0.823,2.803-1.839v-37.79C171.318,161.358,170.074,160.541,168.525,160.541z"/>
			<path d="M167.205,97.726c-33.373,0-66.743,0-100.115,0c-8.381,0-8.381,13,0,13c33.373,0,66.742,0,100.115,0
				C175.584,110.725,175.584,97.726,167.205,97.726z"/>
			<path d="M167.205,128.488c-33.373,0-66.743,0-100.115,0c-8.381,0-8.381,13,0,13c33.373,0,66.742,0,100.115,0
				C175.584,141.488,175.584,128.488,167.205,128.488z"/>
			<path d="M173.832,0H26.931v234.288h180.426V32.504L173.832,0z M191.757,218.683H42.53V15.6h123.269v24.75h25.958V218.683z"/>
		</g>
	</g>
</g>
<g>
</g>
<g>
</g>
<g>
</g>
<g>
</g>
<g>
</g>
<g>
</g>
<g>
</g>
<g>
</g>
<g>
</g>
<g>
</g>
<g>
</g>
<g>
</g>
<g>
</g>
<g>
</g>
<g>
</g>
</svg>
