<?xml version="1.0" encoding="iso-8859-1"?>
<!-- Generator: Adobe Illustrator 17.1.0, SVG Export Plug-In . SVG Version: 6.00 Build 0)  -->
<!DOCTYPE svg PUBLIC "-//W3C//DTD SVG 1.1//EN" "http://www.w3.org/Graphics/SVG/1.1/DTD/svg11.dtd">
<svg version="1.1" id="Capa_1" xmlns="http://www.w3.org/2000/svg" xmlns:xlink="http://www.w3.org/1999/xlink" x="0px" y="0px"
	 viewBox="0 0 261.515 261.515" style="enable-background:new 0 0 261.515 261.515;" xml:space="preserve">
<g>
	<path d="M241.96,80.244c-37.947,9.769-73.876,28.241-103.901,53.421l-3.142,2.634l-10.016,13.351
		c-21.354,28.459-36.524,60.397-45.092,94.929l-1.376,5.545c-1.694,6.827-7.816,11.391-14.547,11.391
		c-1.196,0-2.411-0.145-3.625-0.445c-8.04-1.996-12.94-10.132-10.945-18.172l1.376-5.544c9.541-38.452,26.435-74.018,50.212-105.707
		l2.161-2.881c-0.525-0.505-1.035-1.033-1.518-1.598L70.438,90.877c-14.184,17.46-24.667,36.014-31.256,55.383l-1.688,4.96
		c-2.124,6.241-7.954,10.172-14.199,10.172c-1.603,0-3.231-0.259-4.833-0.804c-7.843-2.669-12.037-11.189-9.368-19.032l1.688-4.959
		c10.321-30.338,28.55-58.716,54.179-84.345c0.082-0.082,0.172-0.151,0.256-0.231c0.501-0.51,1.03-1.001,1.616-1.447L85.38,36.473
		c0.246-0.188,0.499-0.368,0.757-0.54c11.674-7.782,26.146-10.18,39.705-6.58c13.56,3.601,24.935,12.863,31.209,25.412
		c3.704,7.41,0.7,16.42-6.709,20.125c-7.411,3.703-16.421,0.699-20.125-6.709c-2.463-4.928-6.751-8.419-12.075-9.833
		c-5.016-1.333-10.143-0.588-14.554,2.058l31.934,37.255c29.71-21.424,63.544-37.353,98.96-46.469
		c8.017-2.065,16.2,2.764,18.266,10.787C254.813,70.001,249.983,78.179,241.96,80.244z M38.663,51.574
		c14.242,0,25.787-11.545,25.787-25.787S52.904,0,38.663,0S12.875,11.545,12.875,25.787S24.421,51.574,38.663,51.574z"/>
</g>
<g>
</g>
<g>
</g>
<g>
</g>
<g>
</g>
<g>
</g>
<g>
</g>
<g>
</g>
<g>
</g>
<g>
</g>
<g>
</g>
<g>
</g>
<g>
</g>
<g>
</g>
<g>
</g>
<g>
</g>
</svg>
